<svg width="161" height="83" viewBox="0 0 161 83" fill="none" xmlns="http://www.w3.org/2000/svg">
<g filter="url(#filter0_d)">
<path d="M81.0842 15.9024V8.73438C81.0842 5.56737 83.6516 3 86.8186 3H148.463C151.63 3 154.198 5.56737 154.198 8.73438V48.8751C154.198 52.0421 151.63 54.6094 148.463 54.6094H138.428L141.782 70.2603C142.075 71.6282 140.436 72.563 139.408 71.6141L124.092 57.4766H86.8186C83.6516 57.4766 81.0842 54.9093 81.0842 51.7422V48.8751" stroke="url(#paint0_linear)" stroke-width="4.30079"/>
</g>
<path d="M95.8477 21.21L95.1592 25.1504H97.6934L97.0928 28.5781H94.5586L93.3281 35.8584C93.2598 36.3564 93.2891 36.7324 93.416 36.9863C93.5527 37.2402 93.8848 37.377 94.4121 37.3965C94.6172 37.4062 95.0371 37.3818 95.6719 37.3232L95.3203 40.8975C94.5098 41.1611 93.6455 41.2832 92.7275 41.2637C91.2334 41.2441 90.1152 40.8047 89.373 39.9453C88.6309 39.0859 88.3281 37.9189 88.4648 36.4443L89.7539 28.5781H87.791L88.377 25.1504H90.3398L91.0283 21.21H95.8477ZM105.882 41C105.745 40.6191 105.677 40.1406 105.677 39.5645C104.593 40.7559 103.299 41.332 101.795 41.293C100.418 41.2734 99.2754 40.8145 98.3672 39.916C97.459 39.0176 97.0342 37.9287 97.0928 36.6494C97.1416 34.9307 97.8594 33.6123 99.2461 32.6943C100.633 31.7666 102.527 31.3027 104.93 31.3027L106.541 31.332L106.717 30.4385L106.775 29.6621C106.736 28.7734 106.292 28.3145 105.442 28.2852C104.388 28.2656 103.738 28.8467 103.494 30.0283L98.6602 30.043C98.709 28.9785 99.0557 28.0557 99.7002 27.2744C100.345 26.4834 101.219 25.8779 102.322 25.458C103.436 25.0283 104.617 24.8281 105.867 24.8574C107.068 24.8867 108.118 25.1406 109.017 25.6191C109.925 26.0879 110.604 26.7471 111.053 27.5967C111.502 28.4365 111.673 29.4082 111.565 30.5117L110.379 37.9678L110.306 38.876C110.267 39.5986 110.359 40.2139 110.584 40.7217L110.569 41H105.882ZM103.128 37.8066C104.114 37.8457 104.979 37.4111 105.721 36.5029L106.204 33.9541L104.959 33.9395C104.188 33.959 103.523 34.1885 102.967 34.6279C102.41 35.0576 102.083 35.6484 101.985 36.4004C101.937 36.8008 102.01 37.1328 102.205 37.3965C102.41 37.6504 102.718 37.7871 103.128 37.8066ZM117.615 41H112.781L116.678 18.5H121.512L117.615 41ZM128.03 35.1553L126.272 36.6787L125.525 41H120.706L124.617 18.4854H129.437L127.21 30.4971L127.796 29.7939L132.176 25.1504H138.284L131.546 31.8887L135.633 41H130.345L128.03 35.1553Z" fill="url(#paint1_linear)"/>
<path d="M34.0938 41H29.8457V18.5H34.0938V41ZM44.8896 41.293C42.5654 41.293 40.6709 40.5801 39.2061 39.1543C37.751 37.7285 37.0234 35.8291 37.0234 33.4561V33.0459C37.0234 31.4541 37.3311 30.0332 37.9463 28.7832C38.5615 27.5234 39.4307 26.5566 40.5537 25.8828C41.6865 25.1992 42.9756 24.8574 44.4209 24.8574C46.5889 24.8574 48.293 25.541 49.5332 26.9082C50.7832 28.2754 51.4082 30.2139 51.4082 32.7236V34.4521H41.3154C41.4521 35.4873 41.8623 36.3174 42.5459 36.9424C43.2393 37.5674 44.1133 37.8799 45.168 37.8799C46.7988 37.8799 48.0732 37.2891 48.9912 36.1074L51.0713 38.4365C50.4365 39.335 49.5771 40.0381 48.4932 40.5459C47.4092 41.0439 46.208 41.293 44.8896 41.293ZM44.4062 28.2852C43.5664 28.2852 42.8828 28.5684 42.3555 29.1348C41.8379 29.7012 41.5059 30.5117 41.3594 31.5664H47.248V31.2295C47.2285 30.292 46.9746 29.5693 46.4863 29.0615C45.998 28.5439 45.3047 28.2852 44.4062 28.2852ZM58.8936 21.2539V25.1504H61.6035V28.2559H58.8936V36.166C58.8936 36.752 59.0059 37.1719 59.2305 37.4258C59.4551 37.6797 59.8848 37.8066 60.5195 37.8066C60.9883 37.8066 61.4033 37.7725 61.7646 37.7041V40.9121C60.9346 41.166 60.0801 41.293 59.2012 41.293C56.2324 41.293 54.7188 39.7939 54.6602 36.7959V28.2559H52.3457V25.1504H54.6602V21.2539H58.8936ZM65.5293 26.2197L63.5371 25.0625C64.377 23.7441 64.8115 22.3818 64.8408 20.9756V18.5H68.21V20.7705C68.21 21.6494 67.9658 22.6016 67.4775 23.627C66.9893 24.6523 66.3398 25.5166 65.5293 26.2197ZM76.3838 36.6201C76.3838 36.1025 76.125 35.6973 75.6074 35.4043C75.0996 35.1016 74.2793 34.833 73.1465 34.5986C69.377 33.8076 67.4922 32.2061 67.4922 29.7939C67.4922 28.3877 68.0732 27.2158 69.2354 26.2783C70.4072 25.3311 71.9355 24.8574 73.8203 24.8574C75.832 24.8574 77.4385 25.3311 78.6396 26.2783C79.8506 27.2256 80.4561 28.4561 80.4561 29.9697H76.2227C76.2227 29.3643 76.0273 28.8662 75.6367 28.4756C75.2461 28.0752 74.6357 27.875 73.8057 27.875C73.0928 27.875 72.541 28.0361 72.1504 28.3584C71.7598 28.6807 71.5645 29.0908 71.5645 29.5889C71.5645 30.0576 71.7842 30.4385 72.2236 30.7314C72.6729 31.0146 73.4248 31.2637 74.4795 31.4785C75.5342 31.6836 76.4229 31.918 77.1455 32.1816C79.3818 33.002 80.5 34.4229 80.5 36.4443C80.5 37.8896 79.8799 39.0615 78.6396 39.96C77.3994 40.8486 75.7979 41.293 73.835 41.293C72.5068 41.293 71.3252 41.0586 70.29 40.5898C69.2646 40.1113 68.459 39.4619 67.873 38.6416C67.2871 37.8115 66.9941 36.918 66.9941 35.9609H71.0078C71.0469 36.7129 71.3252 37.2891 71.8428 37.6895C72.3604 38.0898 73.0537 38.29 73.9229 38.29C74.7334 38.29 75.3438 38.1387 75.7539 37.8359C76.1738 37.5234 76.3838 37.1182 76.3838 36.6201Z" fill="#2B2A2A"/>
<defs>
<filter id="filter0_d" x="74.9338" y="0.849609" width="85.4142" height="81.3094" filterUnits="userSpaceOnUse" color-interpolation-filters="sRGB">
<feFlood flood-opacity="0" result="BackgroundImageFix"/>
<feColorMatrix in="SourceAlpha" type="matrix" values="0 0 0 0 0 0 0 0 0 0 0 0 0 0 0 0 0 0 127 0"/>
<feOffset dy="4"/>
<feGaussianBlur stdDeviation="2"/>
<feColorMatrix type="matrix" values="0 0 0 0 0 0 0 0 0 0 0 0 0 0 0 0 0 0 0.25 0"/>
<feBlend mode="normal" in2="BackgroundImageFix" result="effect1_dropShadow"/>
<feBlend mode="normal" in="SourceGraphic" in2="effect1_dropShadow" result="shape"/>
</filter>
<linearGradient id="paint0_linear" x1="81.0842" y1="3" x2="141.295" y2="77.547" gradientUnits="userSpaceOnUse">
<stop stop-color="#1D2CB1"/>
<stop offset="1" stop-color="#59C3FF"/>
</linearGradient>
<linearGradient id="paint1_linear" x1="84.5" y1="15.5" x2="125" y2="46" gradientUnits="userSpaceOnUse">
<stop stop-color="#001CAE"/>
<stop offset="1" stop-color="#67C8FF"/>
</linearGradient>
</defs>
</svg>
